<svg id="Layer_1" data-name="Layer 1" xmlns="http://www.w3.org/2000/svg" xmlns:xlink="http://www.w3.org/1999/xlink" viewBox="0 0 312 83.97"><defs><style>.cls-1{fill:none;}.cls-2{clip-path:url(#clip-path);}.cls-3{fill:#fff;}</style><clipPath id="clip-path" transform="translate(-804 -498.03)"><rect class="cls-1" x="804" y="498" width="312" height="84.96"/></clipPath></defs><title>Christ Centred Community Church</title><g class="cls-2"><path class="cls-3" d="M917.68,534.18a6.48,6.48,0,0,1-4.43,1.79c-4.35,0-6-3.05-6.07-6a5.78,5.78,0,0,1,6.07-6.12,6.06,6.06,0,0,1,4.26,1.66l2.22-2.14a9.11,9.11,0,0,0-6.48-2.7c-6.37,0-9.37,4.68-9.34,9.29s2.8,9.09,9.34,9.09a9.29,9.29,0,0,0,6.7-2.62Zm18.67,4.54V521.08h-3.3v7.43h-8.66v-7.43h-3.33v17.63h3.33v-7.13h8.66v7.13Zm18.76-.25-5.34-6a5.23,5.23,0,0,0,4.46-5.54c0-3-2.19-5.82-6.35-5.84l-8.39,0v17.66h3.32v-5.9H946l5.14,5.9h4Zm-7.23-14.31a2.83,2.83,0,1,1,0,5.64h-5.06v-5.64Zm11.91,14.54V521.05h-3.3v17.63ZM977,523.95c-1.33-2.72-4.18-3.5-6.93-3.5-3.25,0-6.82,1.51-6.82,5.14,0,4,3.32,4.91,6.93,5.34,2.34.25,4.08.93,4.08,2.59,0,1.91-2,2.64-4.06,2.64s-4.18-.85-5-2.79l-2.77,1.43c1.31,3.23,4.08,4.33,7.68,4.33,3.93,0,7.41-1.69,7.41-5.62,0-4.21-3.43-5.16-7.1-5.62-2.12-.25-3.93-.68-3.93-2.21,0-1.31,1.18-2.34,3.65-2.34a5,5,0,0,1,4.18,2Zm7.68,14.73H988V524.07h5.59v-3H979v3h5.59Zm29.3-4.51a6.5,6.5,0,0,1-4.43,1.79c-4.36,0-6-3.05-6.07-6a5.78,5.78,0,0,1,6.07-6.12,6.07,6.07,0,0,1,4.26,1.66l2.21-2.14a9.1,9.1,0,0,0-6.47-2.7c-6.37,0-9.37,4.68-9.35,9.29s2.8,9.09,9.35,9.09a9.28,9.28,0,0,0,6.7-2.62Zm17.28,1.23h-9.9v-4h9.55v-3.1h-9.55v-4.05h9.9v-3.23H1018v17.63h13.2ZM1045.9,532l-8.64-10.93h-2.7v17.63h3.33V526.8l9.27,11.91v0h2.07V521h-3.33Zm10.93,6.7h3.32V524.07h5.59v-3h-14.51v3h5.59Zm26.57-.23-5.34-6a5.23,5.23,0,0,0,4.46-5.54c0-3-2.19-5.82-6.35-5.84l-8.39,0v17.66h3.33v-5.9h3.2l5.14,5.9h4Zm-7.23-14.31a2.83,2.83,0,1,1,0,5.64h-5.06v-5.64Zm21.74,11.26H1088v-4h9.55v-3.1H1088v-4.05h9.9v-3.23h-13.2v17.63h13.2Zm9.27-14.36h-6.93v17.63h6.93c6.17,0,8.89-4.51,8.82-9s-2.77-8.67-8.82-8.67Zm-3.63,3.15h3.63c3.83,0,5.44,2.75,5.52,5.49s-1.51,5.79-5.52,5.79h-3.63Zm0,0" transform="translate(-804 -498.03)"/><path class="cls-3" d="M914.88,557.58a5.18,5.18,0,0,1-3.53,1.42,4.5,4.5,0,0,1-4.84-4.75,4.6,4.6,0,0,1,4.84-4.87,4.83,4.83,0,0,1,3.39,1.32l1.76-1.7a7.22,7.22,0,0,0-5.15-2.14,7.07,7.07,0,0,0-7.44,7.4c0,3.65,2.23,7.24,7.44,7.24a7.42,7.42,0,0,0,5.34-2.08Zm9.89-10.73c-4.86,0-7.22,3.71-7.22,7.4s2.29,7.24,7.22,7.24,7.16-3.63,7.2-7.26-2.37-7.38-7.2-7.38Zm0,2.41c3.31,0,4.63,2.64,4.59,5s-1.29,4.79-4.59,4.79-4.56-2.46-4.61-4.77,1.31-5,4.61-5Zm21.38,11.93h2.65v-14h-3l-4.39,6-4.39-6h-3.05v14h2.65V551l4.47,6.12h.52l4.57-6.1Zm17.37,0h2.65v-14h-3l-4.39,6-4.39-6h-3v14h2.64V551l4.47,6.12h.52l4.57-6.1Zm14.82-14v8c0,2.41-1.25,3.87-3.43,3.87s-3.63-1.34-3.63-3.87v-8h-2.62v8c0,4.23,2.87,6.28,6.24,6.28,3.53,0,6.07-2.13,6.07-6.28v-8Zm14.44,8.68-6.88-8.7h-2.14v14h2.65V551.7l7.38,9.49v0h1.65V547.11h-2.65Zm7.72,5.34v-14h-2.62v14Zm6.12,0h2.65V549.54h4.45v-2.41h-11.55v2.41h4.45Zm11.89-14h-3.15v.12l5.4,8.13v5.8h2.65v-5.8l5.59-8.12v-.12h-3.19l-3.73,5.79Zm26.27,10.45a5.17,5.17,0,0,1-3.53,1.42,4.5,4.5,0,0,1-4.83-4.75,4.6,4.6,0,0,1,4.83-4.87,4.83,4.83,0,0,1,3.39,1.32l1.77-1.7a7.24,7.24,0,0,0-5.16-2.14,7.07,7.07,0,0,0-7.44,7.4c0,3.65,2.23,7.24,7.44,7.24a7.41,7.41,0,0,0,5.34-2.08Zm14.86,3.61v-14H1057v5.91h-6.9v-5.91h-2.65v14h2.65v-5.68h6.9v5.68Zm12.18-14v8c0,2.41-1.24,3.87-3.43,3.87s-3.63-1.34-3.63-3.87v-8h-2.63v8c0,4.23,2.87,6.28,6.24,6.28,3.53,0,6.08-2.13,6.08-6.28v-8ZM1089.48,561l-4.25-4.79a4.16,4.16,0,0,0,3.55-4.41c0-2.43-1.75-4.63-5.06-4.65l-6.68,0v14.06h2.65v-4.7h2.55l4.09,4.7h3.15Zm-5.75-11.39a2.25,2.25,0,1,1,0,4.49h-4V549.6Zm17.41,8a5.16,5.16,0,0,1-3.53,1.42,4.51,4.51,0,0,1-4.84-4.75,4.6,4.6,0,0,1,4.84-4.87,4.82,4.82,0,0,1,3.39,1.32l1.77-1.7a7.23,7.23,0,0,0-5.15-2.14,7.07,7.07,0,0,0-7.44,7.4c0,3.65,2.23,7.24,7.44,7.24a7.42,7.42,0,0,0,5.34-2.08Zm14.86,3.61v-14h-2.63v5.91h-6.9v-5.91h-2.65v14h2.65v-5.68h6.9v5.68Zm0,0" transform="translate(-804 -498.03)"/><path class="cls-3" d="M816.31,569.69A42,42,0,0,1,843.17,498a37.83,37.83,0,1,0,44.8,44.8,42,42,0,0,1-71.66,26.86Zm0,0" transform="translate(-804 -498.03)"/></g><path class="cls-3" d="M873.75,512.25a33.62,33.62,0,0,1-21.49,57.32,30.26,30.26,0,1,0-35.84-35.83,33.62,33.62,0,0,1,57.32-21.49Zm0,0" transform="translate(-804 -498.03)"/><path class="cls-3" d="M833.21,543.61a4,4,0,0,1-2.73,1.1,3.48,3.48,0,0,1-3.74-3.68,3.56,3.56,0,0,1,3.74-3.77,3.73,3.73,0,0,1,2.63,1l1.36-1.32a5.6,5.6,0,0,0-4-1.66,5.47,5.47,0,0,0-5.76,5.73,5.34,5.34,0,0,0,5.76,5.6,5.72,5.72,0,0,0,4.13-1.61Zm10.25,0a4,4,0,0,1-2.73,1.1A3.48,3.48,0,0,1,837,541a3.56,3.56,0,0,1,3.74-3.77,3.73,3.73,0,0,1,2.62,1l1.37-1.32a5.61,5.61,0,0,0-4-1.66A5.47,5.47,0,0,0,835,541a5.34,5.34,0,0,0,5.76,5.6,5.72,5.72,0,0,0,4.13-1.61Zm10.24,0a4,4,0,0,1-2.73,1.1,3.48,3.48,0,0,1-3.74-3.68,3.56,3.56,0,0,1,3.74-3.77,3.72,3.72,0,0,1,2.62,1L855,537a5.61,5.61,0,0,0-4-1.66,5.47,5.47,0,0,0-5.76,5.73,5.34,5.34,0,0,0,5.76,5.6A5.73,5.73,0,0,0,855.1,545Zm10.24,0a4,4,0,0,1-2.73,1.1,3.48,3.48,0,0,1-3.74-3.68,3.56,3.56,0,0,1,3.74-3.77,3.74,3.74,0,0,1,2.63,1L865.2,537a5.6,5.6,0,0,0-4-1.66,5.47,5.47,0,0,0-5.76,5.73,5.34,5.34,0,0,0,5.76,5.6,5.73,5.73,0,0,0,4.13-1.61Zm0,0" transform="translate(-804 -498.03)"/></svg>