<?xml version="1.0" encoding="UTF-8" standalone="no"?>
<!DOCTYPE svg PUBLIC "-//W3C//DTD SVG 1.1//EN" "http://www.w3.org/Graphics/SVG/1.1/DTD/svg11.dtd">
<svg width="100%" height="100%" viewBox="0 0 373 373" version="1.1" xmlns="http://www.w3.org/2000/svg" xmlns:xlink="http://www.w3.org/1999/xlink" xml:space="preserve" xmlns:serif="http://www.serif.com/" style="fill-rule:evenodd;clip-rule:evenodd;stroke-linecap:round;stroke-linejoin:round;stroke-miterlimit:1.5;">
    <g transform="matrix(0.928708,0,0,0.9325,9.17874,18.65)">
        <rect x="-9.883" y="-20" width="401.633" height="400" style="fill:rgb(19,19,19);stroke:rgb(28,28,28);stroke-width:1.07px;"/>
    </g>
    <g id="curve1" transform="matrix(2.1044,0,0,2.1044,-441.438,5.0694)">
        <clipPath id="_clip1">
            <path d="M315.134,2.343C317.823,15.956 319.471,26.644 319.888,36.087C322.986,34.507 326.649,33.334 331.2,32.802C326.236,22.783 320.966,13.493 315.134,2.343ZM319.929,44.947C323.658,93.2 311.114,136.6 271.577,171.813C331.315,136.165 353.98,91.447 333.884,38.154C328.632,39.575 324.236,42.347 319.929,44.947Z"/>
        </clipPath>
        <g clip-path="url(#_clip1)">
            <path d="M341.732,172.733L341.732,3.229L314.312,0.324L268.694,172.733L341.732,172.733Z" style="fill:rgb(47,47,47);stroke:white;stroke-width:0.48px;stroke-linecap:butt;stroke-miterlimit:2;"/>
        </g>
    </g>
    <g id="curve2" transform="matrix(2.1044,0,0,2.1044,-441.438,5.0694)">
        <clipPath id="_clip2">
            <path d="M337.266,32.418L320.656,8.594L346.809,34.809L337.266,32.418ZM339.895,37.085C364.555,80.156 359.458,119.337 320.651,154.11C374.821,124.013 387.178,86.139 349.918,39.038L339.895,37.085Z"/>
        </clipPath>
        <g clip-path="url(#_clip2)">
            <rect x="318.842" y="-7.524" width="53.17" height="166.773" style="fill:rgb(47,47,47);stroke:white;stroke-width:0.48px;stroke-linecap:butt;stroke-miterlimit:2;"/>
        </g>
    </g>
    <g id="oneway" transform="matrix(1,0,0,1,15.491,103.965)">
        <g transform="matrix(0.861263,0,0,0.861263,28.87,-2.01794)">
            <path d="M99.24,88.102C99.24,91.74 98.617,95.081 97.37,98.125C96.124,101.168 94.501,103.678 92.502,105.655C90.278,107.856 87.92,109.456 85.427,110.456C82.933,111.455 80.261,111.955 77.408,111.955C74.623,111.955 71.995,111.478 69.524,110.523C67.054,109.569 64.83,108.148 62.853,106.261C60.675,104.217 58.917,101.64 57.581,98.529C56.244,95.418 55.576,91.92 55.576,88.034C55.576,84.575 56.104,81.425 57.16,78.584C58.215,75.742 59.799,73.187 61.91,70.919C63.864,68.808 66.189,67.174 68.884,66.017C71.579,64.86 74.421,64.282 77.408,64.282C80.44,64.282 83.248,64.826 85.831,65.916C88.414,67.005 90.649,68.516 92.535,70.447C94.737,72.693 96.404,75.338 97.539,78.382C98.673,81.425 99.24,84.665 99.24,88.102ZM93.479,88.641C93.479,85.721 92.99,82.851 92.013,80.032C91.036,77.214 89.548,74.85 87.549,72.94C86.237,71.661 84.701,70.633 83.018,69.908C81.344,69.189 79.474,68.83 77.408,68.83C75.387,68.83 73.505,69.195 71.765,69.925C70.024,70.655 68.446,71.728 67.031,73.143C65.234,74.939 63.836,77.163 62.837,79.813C61.837,82.464 61.337,85.227 61.337,88.102C61.337,91.336 61.848,94.233 62.87,96.794C63.892,99.354 65.335,101.522 67.2,103.296C68.48,104.532 69.996,105.526 71.748,106.278C73.5,107.03 75.375,107.407 77.374,107.407C79.373,107.407 81.243,107.042 82.984,106.312C84.725,105.582 86.303,104.532 87.718,103.162C89.402,101.544 90.784,99.484 91.862,96.979C92.94,94.475 93.479,91.695 93.479,88.641ZM132.103,110.669L126.78,110.669C126.803,110.04 126.831,107.962 126.864,104.436C126.898,100.91 126.915,98.731 126.915,97.9C126.915,96.732 126.909,95.008 126.898,92.728C126.887,90.448 126.87,88.781 126.848,87.725C126.78,85.142 126.286,83.289 125.365,82.166C124.444,81.043 122.85,80.481 120.581,80.481C119.211,80.481 117.515,80.886 115.494,81.694C113.472,82.503 111.428,83.536 109.362,84.794C109.362,85.041 109.351,86.377 109.328,88.803C109.307,91.015 109.295,93.228 109.294,95.44C109.294,98.046 109.322,101.19 109.379,104.874C109.435,108.557 109.463,110.489 109.463,110.669L104.14,110.669L104.14,80.924C104.14,80.924 114.385,75.282 122.501,75.697C126.178,75.885 127.684,76.601 129.425,78.409C131.166,80.217 132.036,82.694 132.036,85.838C132.036,88.668 132.019,91.111 131.986,93.166C131.956,94.834 131.939,96.501 131.935,98.169C131.935,100.213 131.963,102.768 132.019,105.834C132.075,108.9 132.103,110.512 132.103,110.669ZM165.921,92.065L141.562,92.065C141.585,94.446 142.09,96.63 143.078,98.618C144.067,100.606 145.583,102.251 147.627,103.554C148.929,104.385 150.412,105.008 152.074,105.424C153.736,105.839 155.735,106.047 158.071,106.047C159.351,106.047 160.525,106.013 161.592,105.946C162.249,105.908 162.906,105.863 163.563,105.811L162.956,110.292C162.777,110.315 162.181,110.354 161.171,110.41C159.981,110.47 158.79,110.498 157.599,110.494C154.006,110.494 150.878,110.028 148.216,109.096C145.555,108.164 143.37,106.878 141.663,105.239C140.203,103.868 138.962,102.116 137.94,99.983C136.918,97.849 136.407,95.479 136.407,92.874C136.407,90.313 136.789,88 137.553,85.933C138.317,83.867 139.462,81.947 140.989,80.172C142.315,78.645 143.96,77.466 145.925,76.635C147.858,75.81 149.938,75.386 152.04,75.388C154.129,75.388 155.982,75.702 157.599,76.331C159.203,76.951 160.644,77.931 161.811,79.195C163.136,80.633 164.147,82.401 164.843,84.501C165.539,86.602 165.899,89.123 165.921,92.065ZM160.699,88.292C160.34,85.507 159.391,83.322 157.852,81.739C156.313,80.155 154.286,79.364 151.771,79.364C149.255,79.364 147.155,80.167 145.47,81.772C143.786,83.378 142.618,85.552 141.967,88.292L160.699,88.292ZM245.17,66.335C241.464,76.036 237.931,85.803 234.574,95.63C231.306,105.209 229.593,110.212 229.436,110.639L224.753,110.639C224.64,110.212 223.433,106.636 221.131,99.909C218.829,93.181 215.791,84.809 212.017,74.792L211.95,74.792C208.804,82.673 205.766,90.597 202.836,98.561C200.062,106.119 198.586,110.145 198.406,110.639L193.622,110.639C193.442,109.988 191.999,105.58 189.292,97.415C186.586,89.251 182.975,79.037 178.461,66.773L183.986,64.617C184.076,64.931 185.39,68.884 187.928,76.476C190.789,85.016 193.698,93.54 196.654,102.048L196.721,102.048C200.18,93.333 203.196,85.348 205.767,78.093C207.116,74.3 208.459,70.504 209.794,66.706L215.016,66.706C215.106,67.087 216.47,71.198 219.109,79.037C221.7,86.738 224.379,94.409 227.145,102.048L227.212,102.048C230.806,92.233 233.838,83.63 236.309,76.24C238.779,68.851 240.06,64.976 240.15,64.617L245.17,66.335ZM270.589,91.29C270.589,96.86 270.578,101.397 270.555,104.901C270.533,108.405 270.521,110.291 270.521,110.561C270.297,110.583 269.252,110.668 267.388,110.814C265.524,110.96 263.121,111.033 260.178,111.033C258.336,111.033 256.483,110.864 254.619,110.527C252.755,110.19 251.149,109.707 249.801,109.079C248.004,108.248 246.55,107.113 245.438,105.676C244.326,104.238 243.77,102.509 243.77,100.487C243.77,98.353 244.427,96.506 245.741,94.945C247.055,93.384 248.88,92.121 251.216,91.155C252.676,90.548 254.625,90.004 257.062,89.521C259.499,89.038 262.278,88.673 265.4,88.426C265.266,86.674 264.828,85.236 264.086,84.113C263.345,82.99 262.256,82.137 260.818,81.553C259.83,81.148 258.729,80.862 257.517,80.694C256.304,80.525 254.889,80.441 253.271,80.441C252.261,80.441 251.402,80.463 250.694,80.508C249.987,80.553 249.026,80.609 247.813,80.677L248.352,76.196C248.689,76.173 249.358,76.134 250.357,76.078C251.357,76.022 252.721,75.994 254.451,75.994C257.101,75.994 259.465,76.269 261.543,76.819C263.62,77.369 265.344,78.262 266.714,79.498C267.995,80.665 268.96,82.109 269.612,83.827C270.263,85.545 270.589,88.033 270.589,91.29ZM265.434,99.409L265.434,96.512C265.434,95.344 265.423,93.996 265.4,92.469C264.412,92.514 262.683,92.71 260.212,93.058C257.741,93.406 255.664,93.906 253.979,94.558C252.727,95.026 251.585,95.748 250.627,96.68C249.65,97.623 249.161,98.791 249.161,100.184C249.161,101.711 249.577,102.941 250.408,103.873C251.239,104.805 252.373,105.519 253.81,106.013C254.911,106.394 256.13,106.67 257.466,106.838C258.869,107.011 260.281,107.095 261.694,107.091C262.143,107.091 262.694,107.08 263.345,107.057C263.997,107.035 264.682,107.012 265.4,106.99C265.4,106.832 265.406,106.091 265.417,104.766C265.428,103.441 265.434,101.655 265.434,99.409Z" style="fill:white;fill-rule:nonzero;stroke:white;stroke-width:1.16px;stroke-linecap:butt;stroke-miterlimit:2;"/>
        </g>
        <g transform="matrix(0.861263,0,0,0.861263,28.87,-2.01794)">
            <path d="M306.963,77.984C302.318,88.227 289.887,117.384 289.887,117.384C289.887,117.384 286.855,123.182 283.851,125.15C280.532,127.325 266.263,126.694 266.263,126.694L266.36,121.926C266.36,121.926 278.529,122.475 282.095,120.455C285.199,118.697 287.726,109.923 287.726,109.923C283.437,99.202 278.558,88.727 273.845,78.186L278.898,75.996C281.371,82.244 287.197,96.448 290.488,104.128L290.556,104.128C292.228,101.341 293.135,98.161 294.396,95.166C297.066,88.829 299.716,82.484 302.348,76.131L306.963,77.984" style="fill:white;fill-rule:nonzero;stroke:white;stroke-width:1.16px;stroke-linecap:butt;stroke-miterlimit:2;"/>
        </g>
    </g>
    <g id="christianchurch" transform="matrix(0.861263,0,0,0.861263,44.361,101.948)">
        <path d="M12.91,122.263L12.91,124.891C11.627,123.818 10.301,123.281 8.93,123.281C7.419,123.281 6.146,123.824 5.112,124.91C4.071,125.989 3.55,127.309 3.55,128.871C3.55,130.413 4.071,131.714 5.112,132.774C6.153,133.834 7.428,134.365 8.939,134.365C9.72,134.365 10.383,134.238 10.929,133.984C11.234,133.857 11.55,133.685 11.877,133.469C12.203,133.254 12.548,132.993 12.91,132.689L12.91,135.364C11.64,136.082 10.307,136.44 8.911,136.44C6.81,136.44 5.016,135.707 3.531,134.241C2.052,132.762 1.312,130.978 1.312,128.89C1.312,127.017 1.931,125.348 3.169,123.881C4.693,122.085 6.664,121.187 9.082,121.187C10.402,121.187 11.678,121.545 12.91,122.263ZM22.814,127.223L28.909,127.223L28.909,121.472L31.041,121.472L31.041,136.174L28.909,136.174L28.909,129.309L22.814,129.309L22.814,136.174L20.681,136.174L20.681,121.472L22.814,121.472L22.814,127.223ZM44.935,129.908L49.486,136.174L46.773,136.174L42.574,130.156L42.174,130.156L42.174,136.174L39.955,136.174L39.955,121.472L42.555,121.472C44.497,121.472 45.9,121.837 46.763,122.567C47.715,123.38 48.191,124.453 48.191,125.786C48.191,126.827 47.893,127.722 47.296,128.471C46.7,129.22 45.913,129.699 44.935,129.908ZM42.174,128.223L42.878,128.223C44.979,128.223 46.03,127.42 46.03,125.814C46.03,124.31 45.008,123.558 42.964,123.558L42.174,123.558L42.174,128.223ZM56.462,121.472L58.681,121.472L58.681,136.173L56.462,136.173L56.462,121.472ZM75.703,123.662L73.904,124.729C73.567,124.145 73.247,123.764 72.942,123.586C72.625,123.383 72.215,123.281 71.714,123.281C71.098,123.281 70.587,123.456 70.181,123.805C69.789,124.119 69.564,124.598 69.572,125.1C69.572,125.817 70.105,126.395 71.171,126.833L72.638,127.433C73.831,127.915 74.704,128.504 75.256,129.199C75.808,129.894 76.084,130.746 76.084,131.756C76.084,133.108 75.634,134.225 74.732,135.107C73.825,135.996 72.698,136.44 71.352,136.44C70.076,136.44 69.023,136.063 68.191,135.307C67.372,134.552 66.861,133.489 66.658,132.117L68.905,131.622C69.007,132.486 69.184,133.082 69.438,133.412C69.895,134.047 70.562,134.365 71.438,134.365C72.13,134.365 72.704,134.133 73.161,133.669C73.618,133.206 73.847,132.619 73.847,131.908C73.847,131.622 73.807,131.36 73.728,131.122C73.647,130.881 73.521,130.658 73.356,130.465C73.167,130.247 72.947,130.058 72.704,129.904C72.402,129.71 72.083,129.543 71.752,129.404L70.333,128.813C68.321,127.963 67.315,126.719 67.315,125.081C67.315,123.977 67.737,123.053 68.581,122.31C69.426,121.561 70.476,121.187 71.733,121.187C73.428,121.187 74.751,122.012 75.703,123.662ZM88.213,123.558L88.213,136.174L85.994,136.174L85.994,123.558L82.614,123.558L82.614,121.472L91.583,121.472L91.583,123.558L88.213,123.558ZM99.006,121.472L101.225,121.472L101.225,136.173L99.006,136.173L99.006,121.472ZM117.982,132.603L111.688,132.603L110.051,136.174L107.661,136.174L114.935,120.549L121.952,136.174L119.524,136.174L117.982,132.603ZM117.077,130.518L114.897,125.519L112.612,130.518L117.077,130.518ZM128.045,136.174L128.045,120.473L138.345,131.689L138.345,121.472L140.476,121.472L140.476,137.069L130.177,125.881L130.177,136.174L128.045,136.174ZM165.895,122.364L165.895,124.992C164.613,123.919 163.286,123.383 161.915,123.383C160.404,123.383 159.132,123.926 158.097,125.011C157.056,126.09 156.536,127.411 156.536,128.972C156.536,130.515 157.056,131.816 158.097,132.876C159.138,133.936 160.414,134.466 161.925,134.466C162.705,134.466 163.369,134.339 163.915,134.085C164.219,133.958 164.535,133.787 164.862,133.571C165.221,133.331 165.566,133.07 165.895,132.79L165.895,135.466C164.626,136.183 163.293,136.542 161.896,136.542C159.795,136.542 158.002,135.809 156.517,134.342C155.038,132.863 154.298,131.08 154.298,128.991C154.298,127.119 154.917,125.449 156.155,123.983C157.678,122.186 159.649,121.288 162.068,121.288C163.388,121.288 164.664,121.647 165.895,122.364ZM176.12,127.236L182.157,127.236L182.157,121.427L184.269,121.427L184.269,136.275L182.157,136.275L182.157,129.342L176.12,129.342L176.12,136.275L174.008,136.275L174.008,121.427L176.12,121.427L176.12,127.236ZM195.159,121.6L195.159,130.455C195.159,131.718 195.366,132.642 195.778,133.226C196.394,134.07 197.26,134.492 198.378,134.492C199.501,134.492 200.371,134.07 200.986,133.226C201.399,132.661 201.605,131.737 201.605,130.455L201.605,121.6L203.824,121.6L203.824,131.064C203.824,132.613 203.341,133.889 202.377,134.892C201.291,136.009 199.958,136.568 198.378,136.568C196.797,136.568 195.467,136.009 194.388,134.892C193.423,133.889 192.941,132.613 192.941,131.064L192.941,121.6L195.159,121.6ZM216.965,129.983L221.516,136.248L218.802,136.248L214.603,130.23L214.204,130.23L214.204,136.248L211.985,136.248L211.985,121.547L214.584,121.547C216.527,121.547 217.93,121.912 218.793,122.641C219.745,123.454 220.221,124.527 220.221,125.86C220.221,126.901 219.923,127.796 219.326,128.545C218.729,129.294 217.942,129.773 216.965,129.983ZM214.204,128.297L214.908,128.297C217.009,128.297 218.06,127.494 218.06,125.888C218.06,124.384 217.038,123.632 214.994,123.632L214.204,123.632L214.204,128.297ZM239.896,122.364L239.896,124.992C238.614,123.919 237.287,123.383 235.916,123.383C234.405,123.383 233.132,123.926 232.098,125.011C231.057,126.09 230.536,127.411 230.536,128.972C230.536,130.515 231.057,131.816 232.098,132.876C233.139,133.936 234.415,134.466 235.925,134.466C236.706,134.466 237.369,134.339 237.915,134.085C238.22,133.958 238.536,133.787 238.863,133.571C239.222,133.331 239.567,133.07 239.896,132.79L239.896,135.466C238.626,136.183 237.293,136.542 235.897,136.542C233.796,136.542 232.002,135.809 230.517,134.342C229.038,132.863 228.299,131.08 228.299,128.991C228.299,127.119 228.918,125.449 230.155,123.983C231.679,122.186 233.65,121.288 236.068,121.288C237.388,121.288 238.664,121.647 239.896,122.364ZM249.784,127.264L255.832,127.264L255.832,121.474L257.948,121.474L257.948,136.275L255.832,136.275L255.832,129.364L249.784,129.364L249.784,136.275L247.668,136.275L247.668,121.474L249.784,121.474L249.784,127.264Z" style="fill:white;fill-rule:nonzero;"/>
    </g>
</svg>
